<?xml version="1.0" encoding="UTF-8"?> <svg xmlns="http://www.w3.org/2000/svg" width="437" height="115" viewBox="0 0 437 115" fill="none"> <path d="M179.2 38.1H152.5L152.6 83.7H139.7V27.6H179.3L179.2 38.1Z" fill="#005D62"></path> <path d="M222.8 30C226.5 31.7 229.3 34 231.3 37.1C233.3 40.1 234.3 43.8 234.3 47.9C234.3 52 233.3 55.6 231.3 58.7C229.3 61.8 226.5 64.1 222.8 65.8C219.1 67.4 214.8 68.2 209.8 68.2H198.5V83.7H185.5V27.6H209.8C214.8 27.5 219.2 28.3 222.8 30ZM218.1 55C220.1 53.3 221.1 50.9 221.1 47.8C221.1 44.6 220.1 42.2 218.1 40.5C216.1 38.8 213.1 38 209.2 38H198.6V57.5H209.2C213.1 57.6 216 56.7 218.1 55Z" fill="#005D62"></path> <path d="M292.3 83.6L292.2 50L275.7 77.7H269.9L253.4 50.7V83.7H241.2V27.6H252L273 62.5L293.7 27.6H304.4L304.5 83.7H292.3V83.6Z" fill="#005D62"></path> <g style="mix-blend-mode:multiply"> <path d="M360.6 29.3H354.7V39.4H353.9V28.6H360.6V29.3Z" fill="#333333" stroke="#444444"></path> <path d="M360.3 31.3H361.1V38.2L366.8 31.3H367.5V39.3H366.7V32.4L361 39.3H360.3V31.3Z" fill="#333333" stroke="#444444"></path> <path d="M377.1 31.3V39.3H376.3V32H372.1L372 34.1C371.9 35.2 371.8 36.1 371.7 36.9C371.6 37.6 371.4 38.3 371.1 38.7C370.8 39.2 370.4 39.4 369.9 39.4C369.7 39.4 369.5 39.4 369.2 39.3L369.3 38.6C369.5 38.6 369.6 38.7 369.7 38.7C370.1 38.7 370.5 38.5 370.7 38.1C370.9 37.7 371.1 37.2 371.2 36.5C371.3 35.9 371.3 35.1 371.4 34.1L371.5 31.3H377.1Z" fill="#333333" stroke="#444444"></path> <path d="M385.9 34.9C386.4 35.3 386.7 35.9 386.7 36.8C386.7 37.7 386.4 38.3 385.9 38.8C385.3 39.3 384.5 39.5 383.5 39.5H380.5V31.5H381.3V34.4H383.7C384.6 34.3 385.4 34.5 385.9 34.9ZM385.3 38.3C385.7 38 385.9 37.5 385.9 36.8C385.9 36.2 385.7 35.7 385.3 35.4C384.9 35.1 384.3 34.9 383.4 34.9H381.2V38.8H383.4C384.2 38.8 384.9 38.6 385.3 38.3Z" fill="#333333" stroke="#444444"></path> <path d="M396.2 38.7V41.4H395.5V39.4H387.9V41.4H387.2V38.7H387.7C388.2 38.7 388.6 38.2 388.8 37.4C389 36.6 389.1 35.4 389.2 34L389.3 31.4H395V38.8H396.2V38.7ZM389.5 37.1C389.3 37.9 389.1 38.5 388.7 38.7H394.1V32H389.9L389.8 34C389.8 35.2 389.7 36.3 389.5 37.1Z" fill="#333333" stroke="#444444"></path> <path d="M398.4 31.3H399.2V38.2L404.9 31.3H405.6V39.3H404.8V32.4L399.1 39.3H398.4V31.3Z" fill="#333333" stroke="#444444"></path> <path d="M414.9 31.3V39.3H414.2V36.5H411.5C411.3 36.5 411.2 36.5 411.1 36.5L409.1 39.3H408.3L410.4 36.4C409.7 36.3 409.2 36 408.9 35.6C408.6 35.2 408.4 34.6 408.4 34C408.4 33.1 408.7 32.5 409.3 32C409.9 31.5 410.7 31.3 411.7 31.3H414.9ZM411.6 36H414.2V32H411.7C410 32 409.1 32.7 409.1 34C409.1 35.3 409.9 36 411.6 36Z" fill="#333333" stroke="#444444"></path> <path d="M359.7 53.3C360.3 53.6 360.8 54.1 361.1 54.7C361.4 55.3 361.6 56 361.6 56.8C361.6 57.6 361.4 58.3 361.1 58.9C360.8 59.5 360.3 60 359.7 60.3C359.1 60.6 358.4 60.8 357.7 60.8C357 60.8 356.3 60.6 355.8 60.3C355.2 60 354.8 59.5 354.5 58.9V63.7H353.7V52.7H354.4V54.6C354.7 54 355.2 53.5 355.7 53.2C356.3 52.9 356.9 52.7 357.6 52.7C358.5 52.8 359.1 53 359.7 53.3ZM359.3 59.9C359.8 59.6 360.2 59.2 360.5 58.7C360.8 58.2 360.9 57.6 360.9 56.9C360.9 56.2 360.8 55.7 360.5 55.1C360.2 54.6 359.8 54.2 359.3 53.9C358.8 53.6 358.3 53.5 357.6 53.5C357 53.5 356.4 53.6 355.9 53.9C355.4 54.2 355 54.6 354.7 55.1C354.4 55.6 354.3 56.2 354.3 56.9C354.3 57.6 354.4 58.1 354.7 58.7C355 59.2 355.4 59.6 355.9 59.9C356.4 60.2 356.9 60.3 357.6 60.3C358.3 60.3 358.8 60.1 359.3 59.9Z" fill="#333333" stroke="#444444"></path> <path d="M364.2 52.9H365V59.8L370.7 52.9H371.4V60.9H370.6V54L364.9 60.9H364.2V52.9Z" fill="#333333" stroke="#444444"></path> <path d="M378.7 53.3C379.3 53.7 379.8 54.1 380.2 54.8C380.6 55.4 380.8 56.1 380.8 56.9C380.8 57.7 380.6 58.4 380.2 59C379.8 59.6 379.3 60.1 378.7 60.5C378.1 60.9 377.4 61 376.6 61C376 61 375.4 60.9 374.8 60.7C374.3 60.5 373.8 60.2 373.4 59.8L373.8 59.3C374.5 59.9 375.4 60.3 376.5 60.3C377.1 60.3 377.7 60.2 378.2 59.9C378.7 59.6 379.1 59.2 379.5 58.8C379.8 58.3 380 57.8 380 57.2H375.5V56.6H380C379.9 56 379.7 55.5 379.4 55C379.1 54.5 378.7 54.2 378.2 53.9C377.7 53.6 377.1 53.5 376.5 53.5C375.4 53.5 374.5 53.8 373.8 54.5L373.4 54.1C373.8 53.7 374.2 53.4 374.8 53.2C375.3 53 375.9 52.9 376.6 52.9C377.4 52.8 378.1 53 378.7 53.3Z" fill="#333333" stroke="#444444"></path> <path d="M389.5 52.9V60.9H388.7V53.6H384.5L384.4 55.7C384.3 56.8 384.2 57.7 384.1 58.5C384 59.3 383.8 59.9 383.5 60.3C383.2 60.8 382.8 61 382.3 61C382.1 61 381.9 61 381.6 60.9L381.7 60.2C381.9 60.2 382 60.3 382.1 60.3C382.5 60.3 382.9 60.1 383.1 59.7C383.3 59.3 383.5 58.8 383.6 58.1C383.7 57.5 383.7 56.7 383.8 55.7L383.9 52.9H389.5Z" fill="#333333" stroke="#444444"></path> <path d="M398.2 53.6H395.1V60.9H394.3V53.6H391.2V52.9H398.3V53.6H398.2Z" fill="#333333" stroke="#444444"></path> <path d="M400.6 60.5C400 60.2 399.5 59.7 399.2 59C398.9 58.4 398.7 57.7 398.7 56.9C398.7 56.1 398.9 55.4 399.2 54.8C399.5 54.2 400 53.7 400.6 53.3C401.2 53 401.9 52.8 402.7 52.8C403.5 52.8 404.1 53 404.8 53.3C405.4 53.6 405.9 54.1 406.2 54.8C406.5 55.4 406.7 56.1 406.7 56.9C406.7 57.7 406.5 58.4 406.2 59C405.9 59.6 405.4 60.1 404.8 60.5C404.2 60.8 403.5 61 402.7 61C401.9 61 401.2 60.8 400.6 60.5ZM404.3 59.9C404.8 59.6 405.2 59.2 405.5 58.7C405.8 58.2 405.9 57.6 405.9 56.9C405.9 56.2 405.8 55.7 405.5 55.1C405.2 54.6 404.8 54.2 404.3 53.9C403.8 53.6 403.3 53.5 402.6 53.5C402 53.5 401.4 53.6 400.9 53.9C400.4 54.2 400 54.6 399.7 55.1C399.4 55.6 399.3 56.2 399.3 56.9C399.3 57.6 399.4 58.1 399.7 58.7C400 59.2 400.4 59.6 400.9 59.9C401.4 60.2 401.9 60.3 402.6 60.3C403.3 60.3 403.8 60.1 404.3 59.9Z" fill="#333333" stroke="#444444"></path> <path d="M415.3 53.3C415.9 53.6 416.4 54.1 416.7 54.7C417 55.3 417.2 56 417.2 56.8C417.2 57.6 417 58.3 416.7 58.9C416.4 59.5 415.9 60 415.3 60.3C414.7 60.6 414 60.8 413.3 60.8C412.6 60.8 411.9 60.6 411.4 60.3C410.8 60 410.4 59.5 410.1 58.9V63.7H409.3V52.7H410V54.6C410.3 54 410.8 53.5 411.3 53.2C411.9 52.9 412.5 52.7 413.2 52.7C414 52.8 414.7 53 415.3 53.3ZM414.9 59.9C415.4 59.6 415.8 59.2 416.1 58.7C416.4 58.2 416.5 57.6 416.5 56.9C416.5 56.2 416.4 55.7 416.1 55.1C415.8 54.6 415.4 54.2 414.9 53.9C414.4 53.6 413.9 53.5 413.2 53.5C412.6 53.5 412 53.6 411.5 53.9C411 54.2 410.6 54.6 410.3 55.1C410 55.6 409.9 56.2 409.9 56.9C409.9 57.6 410 58.1 410.3 58.7C410.6 59.2 411 59.6 411.5 59.9C412 60.2 412.5 60.3 413.2 60.3C413.8 60.3 414.4 60.1 414.9 59.9Z" fill="#333333" stroke="#444444"></path> <path d="M420.9 60.5C420.3 60.2 419.8 59.7 419.5 59C419.2 58.4 419 57.7 419 56.9C419 56.1 419.2 55.4 419.5 54.8C419.8 54.2 420.3 53.7 420.9 53.3C421.5 53 422.2 52.8 423 52.8C423.8 52.8 424.4 53 425.1 53.3C425.7 53.6 426.2 54.1 426.5 54.8C426.8 55.4 427 56.1 427 56.9C427 57.7 426.8 58.4 426.5 59C426.2 59.6 425.7 60.1 425.1 60.5C424.5 60.8 423.8 61 423 61C422.2 61 421.5 60.8 420.9 60.5ZM424.6 59.9C425.1 59.6 425.5 59.2 425.8 58.7C426.1 58.2 426.2 57.6 426.2 56.9C426.2 56.2 426.1 55.7 425.8 55.1C425.5 54.6 425.1 54.2 424.6 53.9C424.1 53.6 423.6 53.5 422.9 53.5C422.3 53.5 421.7 53.6 421.2 53.9C420.7 54.2 420.3 54.6 420 55.1C419.7 55.6 419.6 56.2 419.6 56.9C419.6 57.6 419.7 58.1 420 58.7C420.3 59.2 420.7 59.6 421.2 59.9C421.7 60.2 422.2 60.3 422.9 60.3C423.6 60.3 424.1 60.1 424.6 59.9Z" fill="#333333" stroke="#444444"></path> <path d="M436 58.8C436 59.5 435.7 60 435.2 60.4C434.7 60.8 433.9 61 432.9 61H429.4V53H432.8C433.7 53 434.4 53.2 434.9 53.5C435.4 53.9 435.7 54.4 435.7 55C435.7 55.5 435.6 55.9 435.3 56.2C435 56.5 434.7 56.7 434.2 56.9C435.4 57 436 57.6 436 58.8ZM430.2 56.5H432.8C433.5 56.5 434 56.4 434.4 56.1C434.8 55.8 435 55.5 435 55C435 54.5 434.8 54.1 434.5 53.9C434.1 53.6 433.6 53.5 432.9 53.5H430.3V56.5H430.2ZM435.2 58.7C435.2 58.2 435 57.8 434.7 57.5C434.3 57.2 433.8 57.1 433.1 57.1H430.3V60.2H433C434.5 60.3 435.2 59.8 435.2 58.7Z" fill="#333333" stroke="#444444"></path> <path d="M364.1 82.5V73.3L359.6 81.1H359.2L354.7 73.3V82.5H353.9V71.7H354.6L359.4 80L364.2 71.7H364.8V82.5H364.1Z" fill="#333333" stroke="#444444"></path> <path d="M369.7 82C369.1 81.7 368.6 81.2 368.3 80.5C368 79.9 367.8 79.2 367.8 78.4C367.8 77.6 368 76.9 368.3 76.3C368.6 75.7 369.1 75.2 369.7 74.8C370.3 74.5 371 74.3 371.8 74.3C372.6 74.3 373.2 74.5 373.9 74.8C374.5 75.1 375 75.6 375.3 76.3C375.6 76.9 375.8 77.6 375.8 78.4C375.8 79.2 375.6 79.9 375.3 80.5C375 81.1 374.5 81.6 373.9 82C373.3 82.3 372.6 82.5 371.8 82.5C371 82.5 370.3 82.4 369.7 82ZM373.4 81.4C373.9 81.1 374.3 80.7 374.6 80.2C374.9 79.7 375 79.1 375 78.4C375 77.7 374.9 77.2 374.6 76.6C374.3 76.1 373.9 75.7 373.4 75.4C372.9 75.1 372.4 75 371.7 75C371.1 75 370.5 75.1 370 75.4C369.5 75.7 369.1 76.1 368.8 76.6C368.5 77.1 368.4 77.7 368.4 78.4C368.4 79.1 368.5 79.6 368.8 80.2C369.1 80.7 369.5 81.1 370 81.4C370.5 81.7 371 81.8 371.7 81.8C372.3 81.8 372.9 81.7 373.4 81.4Z" fill="#333333" stroke="#444444"></path> <path d="M379.4 82C378.8 81.7 378.3 81.2 378 80.5C377.7 79.8 377.5 79.2 377.5 78.4C377.5 77.6 377.7 76.9 378 76.3C378.3 75.7 378.8 75.2 379.4 74.9C380 74.6 380.7 74.4 381.5 74.4C382.1 74.4 382.7 74.5 383.3 74.8C383.8 75.1 384.3 75.4 384.6 75.9L384 76.3C383.7 75.9 383.4 75.6 382.9 75.4C382.5 75.2 382 75.1 381.5 75.1C380.9 75.1 380.3 75.2 379.8 75.5C379.3 75.8 378.9 76.2 378.6 76.7C378.3 77.2 378.2 77.8 378.2 78.5C378.2 79.2 378.3 79.8 378.6 80.3C378.9 80.8 379.3 81.2 379.8 81.5C380.3 81.8 380.9 81.9 381.5 81.9C382 81.9 382.5 81.8 382.9 81.6C383.3 81.4 383.7 81.1 384 80.7L384.6 81.1C384.3 81.6 383.8 81.9 383.3 82.2C382.8 82.5 382.2 82.6 381.5 82.6C380.7 82.5 380 82.4 379.4 82Z" fill="#333333" stroke="#444444"></path> <path d="M389.5 78.7H387.5V82.4H386.7V74.4H387.5V78H389.5L392.5 74.4H393.3L390 78.3L393.5 82.4H392.6L389.5 78.7Z" fill="#333333" stroke="#444444"></path> <path d="M402.1 80.3C402.1 81 401.8 81.5 401.3 81.9C400.8 82.3 400 82.5 399 82.5H395.5V74.5H398.9C399.8 74.5 400.5 74.7 401 75C401.5 75.4 401.8 75.9 401.8 76.5C401.8 77 401.7 77.4 401.4 77.7C401.1 78 400.8 78.2 400.3 78.4C401.5 78.5 402.1 79.2 402.1 80.3ZM396.3 78.1H398.9C399.6 78.1 400.1 78 400.5 77.7C400.9 77.4 401.1 77.1 401.1 76.6C401.1 76.1 400.9 75.7 400.6 75.5C400.2 75.2 399.7 75.1 399 75.1H396.4V78.1H396.3ZM401.3 80.3C401.3 79.8 401.1 79.4 400.8 79.1C400.4 78.8 399.9 78.7 399.2 78.7H396.4V81.8H399.1C400.6 81.8 401.3 81.3 401.3 80.3Z" fill="#333333" stroke="#444444"></path> <path d="M410.3 78C410.8 78.4 411.1 79 411.1 79.9C411.1 80.8 410.8 81.4 410.3 81.9C409.7 82.4 408.9 82.6 407.9 82.6H404.9V74.6H405.7V77.5H408.1C409 77.4 409.8 77.6 410.3 78ZM409.7 81.4C410.1 81.1 410.3 80.6 410.3 79.9C410.3 79.3 410.1 78.8 409.7 78.5C409.3 78.2 408.7 78 407.8 78H405.6V81.9H407.8C408.6 81.9 409.2 81.7 409.7 81.4ZM412.5 74.4H413.3V82.4H412.5V74.4Z" fill="#333333" stroke="#444444"></path> </g> <path d="M329.1 26.4V84.7" stroke="#444444" stroke-miterlimit="10"></path> <path d="M93.8 21.2C101.9 29.3 106.8 39.5 108.3 50.1L113.7 49.7C112.1 37.9 106.7 26.4 97.7 17.3C94 13.6 90 10.6 85.7 8.10001L83.3 13C87 15.2 90.6 18 93.8 21.2Z" fill="#223334"></path> <path d="M21.4 21.2C22.9 19.7 24.4 18.3 26 17.1L22.9 12.6C21 14.1 19.2 15.6 17.5 17.4C15.1 19.8 13.1 22.3 11.2 24.9L15.8 27.8C17.5 25.4 19.3 23.2 21.4 21.2Z" fill="#00A48A"></path> <path d="M104 79.1L108.8 81.7C112.6 73.7 114.4 64.9 114.2 56.2L108.8 56.6C108.9 64.3 107.3 72 104 79.1Z" fill="#005D62"></path> <path d="M77.4 10.2L79.8 5.29999C63.2 -1.70001 44 -0.500006 28.3 8.89999L31.4 13.4C45.4 5.09999 62.6 4.00001 77.4 10.2Z" fill="#005D62"></path> <path d="M12.4 33.3L7.80001 30.4C-1.99999 48.5 -1.3 70.8 10 88.2L14.4 85C4.40001 69.3 3.8 49.5 12.4 33.3Z" fill="#223334"></path> <path d="M93.8 93.7C82.8 104.7 68 109.6 53.6 108.5L52.8 113.9C68.8 115.2 85.3 109.8 97.6 97.5C100.7 94.4 103.4 91 105.6 87.5L100.8 84.9C98.9 88 96.6 90.9 93.8 93.7Z" fill="#223334"></path> <path d="M21.4 93.7C20.3 92.6 19.3 91.5 18.3 90.3L13.9 93.5C15 94.9 16.3 96.2 17.6 97.5C25.8 105.7 35.9 110.9 46.5 113L47.3 107.6C37.7 105.6 28.7 101 21.4 93.7Z" fill="#00A48A"></path> <path d="M35.4 94.9C34.4 94.3 33.5 93.7 32.5 93L29 97.2C30.1 98 31.3 98.8 32.6 99.5C41.1 104.5 50.5 106.7 59.7 106.3L59.1 100.9C51.1 101.2 42.9 99.3 35.4 94.9Z" fill="#223334"></path> <path d="M20.1 35.3C20.9 33.9 21.8 32.6 22.8 31.3L18.7 27.7C17.5 29.2 16.5 30.8 15.5 32.5C14.1 34.8 13 37.3 12 39.7L17.2 41.3C18 39.3 19 37.2 20.1 35.3Z" fill="#00A48A"></path> <path d="M15.2 47.6L10 46C5.9 63 11.2 81.1 24.1 93.2L27.6 89C16.4 78.2 11.8 62.4 15.2 47.6Z" fill="#005D62"></path> <path d="M63.4 14.3L64.5 9.00001C49.4 6.90001 33.9 11.9 22.9 22.8L27 26.4C36.7 16.9 50.2 12.5 63.4 14.3Z" fill="#1C3B40"></path> <path d="M79.8 20C88.1 24.9 94.1 32.1 97.6 40.3L102.8 38.5C98.9 29.1 92 20.9 82.6 15.3C78.9 13.1 75 11.5 71 10.3L69.9 15.6C73.2 16.6 76.6 18.1 79.8 20Z" fill="#213030"></path> <path d="M100.5 65L105.8 66.3C107.1 59 106.8 51.6 104.9 44.6L99.7 46.4C101.3 52.4 101.6 58.8 100.5 65Z" fill="#213030"></path> <path d="M95.1 79.6C88.5 90.8 77.6 98 65.7 100.2L66.3 105.6C79.8 103.2 92.3 95.1 99.8 82.3C101.6 79.2 103.1 75.9 104.2 72.6L98.9 71.3C97.9 74.1 96.6 76.9 95.1 79.6Z" fill="#1C3B40"></path> <path d="M44.4 90.7C43.3 90.3 42.3 89.8 41.3 89.3L38.4 93.9C39.7 94.6 41 95.2 42.4 95.7C44.4 96.5 46.4 97.1 48.4 97.6L49.2 92.2C47.6 91.8 46 91.3 44.4 90.7Z" fill="#1C3B40"></path> <path d="M90.9 70.6C90.6 71.3 90.3 72 90 72.7L94.7 75.5C95.1 74.6 95.6 73.6 96 72.7C99 65.1 99.6 57.2 98.2 49.8L92.9 51.2C94 57.5 93.4 64.2 90.9 70.6Z" fill="#005D62"></path> <path d="M55.6 93.2L54.8 98.6C69.1 99.6 83.1 92.9 91.4 81.1L86.7 78.3C79.6 88.3 67.7 93.8 55.6 93.2Z" fill="#005D62"></path> <path d="M70.8 24.1C80.6 28 87.7 35.7 91.1 44.8L96.4 43.4C92.5 32.7 84.2 23.6 72.8 19C70.1 17.9 67.4 17.2 64.7 16.7L64.2 22.1C66.4 22.6 68.6 23.3 70.8 24.1Z" fill="#00A48A"></path> <path d="M21.8 58.8L16.3 58.5C16.7 71 22.7 82.9 32.9 90.4L35.8 85.8C27.3 79.4 22.2 69.4 21.8 58.8Z" fill="#1C3B40"></path> <path d="M57.7 21.6L58.2 16.2C52.3 16.1 46.6 17.3 41.3 19.6L43.9 24.4C48.2 22.6 52.9 21.6 57.7 21.6Z" fill="#005D62"></path> <path d="M24.3 44.2C27.1 37.1 32 31.3 38 27.4L35.4 22.6C28.3 27.1 22.5 33.8 19.2 42.2C17.9 45.4 17.1 48.7 16.7 52L22.2 52.3C22.5 49.6 23.2 46.9 24.3 44.2Z" fill="#213030"></path> <path d="M85.6 55.5L91.1 55.8C90.5 44.6 84.3 34.2 74.6 28.5L72.3 33.5C80 38.2 85 46.5 85.6 55.5Z" fill="#223334"></path> <path d="M29.7 60.8H24.2C24.7 65.1 25.9 69.3 28 73.1L32.6 70.1C31.1 67.2 30.1 64.1 29.7 60.8Z" fill="#005D62"></path> <path d="M49.9 84.5C44.3 82.9 39.7 79.7 36.2 75.6L31.7 78.6C35.9 83.8 41.6 87.7 48.5 89.7C51 90.4 53.5 90.8 56 90.9L55.7 85.4C53.7 85.3 51.8 85 49.9 84.5Z" fill="#213030"></path> <path d="M62.2 85.2L62.5 90.7C72.1 89.3 80.8 83.7 86.1 75.4L81.2 73C76.8 79.4 69.8 83.9 62.2 85.2Z" fill="#00A48A"></path> <path d="M84.6 65.2C84.4 65.8 84.2 66.4 84 67L88.9 69.4C89.2 68.5 89.6 67.6 89.8 66.6C90.2 65.1 90.5 63.7 90.7 62.2L85.2 61.9C85.2 63.1 84.9 64.1 84.6 65.2Z" fill="#1C3B40"></path> <path d="M30.6 49.7C32.8 42 38 36 44.6 32.5L42.6 27.4C34.5 31.5 28 38.8 25.3 48.2C24.7 50.2 24.3 52.3 24.2 54.4H29.7C29.8 52.8 30.1 51.2 30.6 49.7Z" fill="#005D62"></path> <path d="M65.3 30.4C65.6 30.5 66 30.6 66.3 30.7L68.6 25.7C68 25.5 67.4 25.3 66.8 25.1C60.7 23.3 54.4 23.4 48.7 25L50.7 30.1C55.3 29 60.4 29 65.3 30.4Z" fill="#1C3B40"></path> </svg> 